<svg width="1215" height="186" viewBox="0 0 1215 186" fill="none" xmlns="http://www.w3.org/2000/svg">
<path d="M146.272 3.51999V43.456H98.144V184H47.968V43.456H0.352V3.51999H146.272ZM326.372 3.51999V184H276.196V111.552H215.012V184H164.836V3.51999H215.012V71.36H276.196V3.51999H326.372ZM405.262 43.712V73.152H462.862V111.296H405.262V143.808H470.542V184H355.086V3.51999H470.542V43.712H405.262ZM659.536 91.328C670.117 93.7173 678.48 99.008 684.624 107.2C690.939 115.221 694.096 124.437 694.096 134.848C694.096 150.208 688.805 162.24 678.224 170.944C667.643 179.648 652.795 184 633.68 184H544.336V3.51999H630.864C649.296 3.51999 663.717 7.61599 674.128 15.808C684.709 24 690 35.52 690 50.368C690 60.9493 687.184 69.824 681.552 76.992C676.091 83.9893 668.752 88.768 659.536 91.328ZM594.512 75.2H619.856C632.485 75.2 638.8 69.9947 638.8 59.584C638.8 48.832 632.485 43.456 619.856 43.456H594.512V75.2ZM623.696 143.552C636.325 143.552 642.64 138.261 642.64 127.68C642.64 122.219 640.933 118.037 637.52 115.136C634.277 112.235 629.584 110.784 623.44 110.784H594.512V143.552H623.696ZM766.262 145.6H822.326V184H716.086V3.51999H766.262V145.6ZM928.364 185.792C911.468 185.792 895.937 181.867 881.772 174.016C867.607 165.995 856.343 154.987 847.98 140.992C839.788 126.827 835.692 110.869 835.692 93.12C835.692 75.3707 839.788 59.4987 847.98 45.504C856.343 31.3387 867.607 20.3307 881.772 12.48C895.937 4.62933 911.468 0.703995 928.364 0.703995C945.431 0.703995 960.961 4.62933 974.956 12.48C989.121 20.3307 1000.3 31.3387 1008.49 45.504C1016.68 59.4987 1020.78 75.3707 1020.78 93.12C1020.78 110.869 1016.68 126.827 1008.49 140.992C1000.3 154.987 989.121 165.995 974.956 174.016C960.791 181.867 945.26 185.792 928.364 185.792ZM928.364 139.2C941.164 139.2 951.233 135.019 958.572 126.656C966.081 118.293 969.836 107.115 969.836 93.12C969.836 78.784 966.081 67.52 958.572 59.328C951.233 50.9653 941.164 46.784 928.364 46.784C915.393 46.784 905.239 50.9653 897.9 59.328C890.561 67.52 886.892 78.784 886.892 93.12C886.892 107.285 890.561 118.549 897.9 126.912C905.239 135.104 915.393 139.2 928.364 139.2ZM1158.54 62.912C1155.63 58.1333 1151.62 54.464 1146.5 51.904C1141.55 49.344 1135.67 48.064 1128.84 48.064C1116.21 48.064 1106.23 52.16 1098.89 60.352C1091.72 68.544 1088.14 79.552 1088.14 93.376C1088.14 108.907 1091.98 120.768 1099.66 128.96C1107.51 136.981 1118.86 140.992 1133.7 140.992C1151.28 140.992 1163.83 133.056 1171.34 117.184H1120.9V81.088H1214.6V129.728C1210.67 139.285 1204.87 148.245 1197.19 156.608C1189.68 164.971 1180.13 171.883 1168.52 177.344C1156.91 182.635 1143.69 185.28 1128.84 185.28C1110.75 185.28 1094.71 181.44 1080.71 173.76C1066.89 165.909 1056.14 155.072 1048.46 141.248C1040.95 127.253 1037.19 111.296 1037.19 93.376C1037.19 75.6267 1040.95 59.84 1048.46 46.016C1056.14 32.0213 1066.89 21.184 1080.71 13.504C1094.54 5.65333 1110.49 1.728 1128.58 1.728C1151.28 1.728 1170.06 7.18933 1184.9 18.112C1199.75 29.0347 1208.97 43.968 1212.55 62.912H1158.54Z" fill="black"/>
</svg>
